<svg xmlns="http://www.w3.org/2000/svg" width="20" height="20" viewBox="0 0 20 20">
  <path id="bxs-user-circle_1_" data-name="bxs-user-circle (1)" d="M12,2A10.133,10.133,0,0,0,2,12,10.133,10.133,0,0,0,12,22,10.133,10.133,0,0,0,22,12,10.133,10.133,0,0,0,12,2Zm0,5a2.914,2.914,0,0,1,3,3,2.914,2.914,0,0,1-3,3,2.915,2.915,0,0,1-3-3A2.915,2.915,0,0,1,12,7ZM6.894,16.772A4.959,4.959,0,0,1,11,14.572h2a4.958,4.958,0,0,1,4.106,2.2,6.965,6.965,0,0,1-10.212,0Z" transform="translate(-2 -2)" fill="#fff"/>
</svg>
